<?xml version="1.0" encoding="UTF-8" standalone="no"?>
<!-- Created with Inkscape (http://www.inkscape.org/) -->

<svg
   xmlns:dc="http://purl.org/dc/elements/1.1/"
   xmlns:cc="http://creativecommons.org/ns#"
   xmlns:rdf="http://www.w3.org/1999/02/22-rdf-syntax-ns#"
   xmlns:svg="http://www.w3.org/2000/svg"
   xmlns="http://www.w3.org/2000/svg"
   xmlns:xlink="http://www.w3.org/1999/xlink"
   xmlns:sodipodi="http://sodipodi.sourceforge.net/DTD/sodipodi-0.dtd"
   xmlns:inkscape="http://www.inkscape.org/namespaces/inkscape"
   width="460.57047"
   height="555.09918"
   viewBox="0 0 121.85927 146.86999"
   version="1.1"
   id="svg8"
   inkscape:version="0.92.4 (33fec40, 2019-01-16)"
   sodipodi:docname="alien.svg">
  <defs
     id="defs2">
    <inkscape:path-effect
       effect="bspline"
       id="path-effect4683"
       is_visible="true"
       weight="33.333333"
       steps="2"
       helper_size="0"
       apply_no_weight="true"
       apply_with_weight="true"
       only_selected="false" />
    <inkscape:path-effect
       effect="bspline"
       id="path-effect4679"
       is_visible="true"
       weight="33.333333"
       steps="2"
       helper_size="0"
       apply_no_weight="true"
       apply_with_weight="true"
       only_selected="false" />
    <inkscape:path-effect
       effect="bspline"
       id="path-effect4675"
       is_visible="true"
       weight="33.333333"
       steps="2"
       helper_size="0"
       apply_no_weight="true"
       apply_with_weight="true"
       only_selected="false" />
    <inkscape:path-effect
       effect="bspline"
       id="path-effect4671"
       is_visible="true"
       weight="33.333333"
       steps="2"
       helper_size="0"
       apply_no_weight="true"
       apply_with_weight="true"
       only_selected="false" />
    <inkscape:path-effect
       effect="bspline"
       id="path-effect4667"
       is_visible="true"
       weight="33.333333"
       steps="2"
       helper_size="0"
       apply_no_weight="true"
       apply_with_weight="true"
       only_selected="false" />
    <inkscape:path-effect
       effect="bspline"
       id="path-effect4663"
       is_visible="true"
       weight="33.333333"
       steps="2"
       helper_size="0"
       apply_no_weight="true"
       apply_with_weight="true"
       only_selected="false" />
    <inkscape:path-effect
       effect="bspline"
       id="path-effect4659"
       is_visible="true"
       weight="33.333333"
       steps="2"
       helper_size="0"
       apply_no_weight="true"
       apply_with_weight="true"
       only_selected="false" />
    <inkscape:path-effect
       effect="bspline"
       id="path-effect4655"
       is_visible="true"
       weight="33.333333"
       steps="2"
       helper_size="0"
       apply_no_weight="true"
       apply_with_weight="true"
       only_selected="false" />
    <inkscape:path-effect
       effect="bspline"
       id="path-effect4650"
       is_visible="true"
       weight="33.333333"
       steps="2"
       helper_size="0"
       apply_no_weight="true"
       apply_with_weight="true"
       only_selected="false" />
    <inkscape:path-effect
       effect="bspline"
       id="path-effect4646"
       is_visible="true"
       weight="33.333333"
       steps="2"
       helper_size="0"
       apply_no_weight="true"
       apply_with_weight="true"
       only_selected="false" />
    <inkscape:path-effect
       effect="bspline"
       id="path-effect4642"
       is_visible="true"
       weight="33.333333"
       steps="2"
       helper_size="0"
       apply_no_weight="true"
       apply_with_weight="true"
       only_selected="false" />
    <inkscape:path-effect
       effect="bspline"
       id="path-effect4638"
       is_visible="true"
       weight="33.333333"
       steps="2"
       helper_size="0"
       apply_no_weight="true"
       apply_with_weight="true"
       only_selected="false" />
    <inkscape:path-effect
       effect="bspline"
       id="path-effect4634"
       is_visible="true"
       weight="33.333333"
       steps="2"
       helper_size="0"
       apply_no_weight="true"
       apply_with_weight="true"
       only_selected="false" />
    <inkscape:path-effect
       effect="bspline"
       id="path-effect4630"
       is_visible="true"
       weight="33.333333"
       steps="2"
       helper_size="0"
       apply_no_weight="true"
       apply_with_weight="true"
       only_selected="false" />
    <inkscape:path-effect
       effect="bspline"
       id="path-effect4626"
       is_visible="true"
       weight="33.333333"
       steps="2"
       helper_size="0"
       apply_no_weight="true"
       apply_with_weight="true"
       only_selected="false" />
    <inkscape:path-effect
       effect="bspline"
       id="path-effect4586"
       is_visible="true"
       weight="33.333333"
       steps="2"
       helper_size="0"
       apply_no_weight="true"
       apply_with_weight="true"
       only_selected="false" />
    <inkscape:path-effect
       effect="bspline"
       id="path-effect4582"
       is_visible="true"
       weight="33.333333"
       steps="2"
       helper_size="0"
       apply_no_weight="true"
       apply_with_weight="true"
       only_selected="false" />
    <inkscape:path-effect
       effect="bspline"
       id="path-effect4566"
       is_visible="true"
       weight="33.333333"
       steps="2"
       helper_size="0"
       apply_no_weight="true"
       apply_with_weight="true"
       only_selected="false" />
    <linearGradient
       inkscape:collect="always"
       id="linearGradient4550">
      <stop
         style="stop-color:#00ff00;stop-opacity:1;"
         offset="0"
         id="stop4546" />
      <stop
         style="stop-color:#007300;stop-opacity:1"
         offset="1"
         id="stop4548" />
    </linearGradient>
    <inkscape:path-effect
       effect="bspline"
       id="path-effect4413"
       is_visible="true"
       weight="33.333333"
       steps="2"
       helper_size="0"
       apply_no_weight="true"
       apply_with_weight="true"
       only_selected="false" />
    <inkscape:path-effect
       effect="bspline"
       id="path-effect4409"
       is_visible="true"
       weight="33.333333"
       steps="2"
       helper_size="0"
       apply_no_weight="true"
       apply_with_weight="true"
       only_selected="false" />
    <inkscape:path-effect
       effect="bspline"
       id="path-effect4405"
       is_visible="true"
       weight="33.333333"
       steps="2"
       helper_size="0"
       apply_no_weight="true"
       apply_with_weight="true"
       only_selected="false" />
    <inkscape:path-effect
       effect="bspline"
       id="path-effect4391"
       is_visible="true"
       weight="33.333333"
       steps="2"
       helper_size="0"
       apply_no_weight="true"
       apply_with_weight="true"
       only_selected="false" />
    <inkscape:path-effect
       effect="bspline"
       id="path-effect4387"
       is_visible="true"
       weight="33.333333"
       steps="2"
       helper_size="0"
       apply_no_weight="true"
       apply_with_weight="true"
       only_selected="false" />
    <inkscape:path-effect
       effect="bspline"
       id="path-effect4380"
       is_visible="true"
       weight="33.333333"
       steps="2"
       helper_size="0"
       apply_no_weight="true"
       apply_with_weight="true"
       only_selected="false" />
    <inkscape:path-effect
       effect="bspline"
       id="path-effect4370"
       is_visible="true"
       weight="33.333333"
       steps="2"
       helper_size="0"
       apply_no_weight="true"
       apply_with_weight="true"
       only_selected="false" />
    <inkscape:path-effect
       effect="spiro"
       id="path-effect4366"
       is_visible="true" />
    <pattern
       patternTransform="matrix(-27.946649,-9.0198726,5.8932973,-18.25945,0,0)"
       id="pattern6250-921"
       xlink:href="#Strips1_1-268"
       inkscape:collect="always" />
    <pattern
       inkscape:collect="always"
       patternUnits="userSpaceOnUse"
       width="2"
       height="1"
       patternTransform="translate(0,0) scale(10,10)"
       id="Strips1_1-268"
       inkscape:stockid="Stripes 1:1"
       inkscape:isstock="true">
      <rect
         style="fill:#000000;stroke:none;opacity:1"
         x="0"
         y="-0.5"
         width="1"
         height="2"
         id="rect6256" />
    </pattern>
    <radialGradient
       inkscape:collect="always"
       xlink:href="#linearGradient4550"
       id="radialGradient4552"
       cx="577.52063"
       cy="-338.08527"
       fx="577.52063"
       fy="-338.08527"
       r="228.23683"
       gradientTransform="matrix(1,0,0,1.2067403,0,69.895845)"
       gradientUnits="userSpaceOnUse"
       spreadMethod="reflect" />
  </defs>
  <sodipodi:namedview
     id="base"
     pagecolor="#afb1ad"
     bordercolor="#666666"
     borderopacity="1.0"
     inkscape:pageopacity="0"
     inkscape:pageshadow="2"
     inkscape:zoom="1"
     inkscape:cx="230.29611"
     inkscape:cy="272.82742"
     inkscape:document-units="px"
     inkscape:current-layer="layer1"
     showgrid="true"
     units="px"
     inkscape:object-paths="false"
     inkscape:snap-intersection-paths="true"
     inkscape:snap-global="false"
     inkscape:lockguides="false">
    <inkscape:grid
       enabled="false"
       id="grid815"
       type="xygrid"
       originx="-91.865595"
       originy="-226.05309" />
    <inkscape:grid
       enabled="false"
       empspacing="5"
       units="mm"
       id="grid817"
       type="axonomgrid"
       originx="-91.865595"
       originy="-226.05309" />
    <inkscape:grid
       id="grid4522"
       type="xygrid"
       originx="-91.865595"
       originy="-226.05309" />
  </sodipodi:namedview>
  <metadata
     id="metadata5">
    <rdf:RDF>
      <cc:Work
         rdf:about="">
        <dc:format>image/svg+xml</dc:format>
        <dc:type
           rdf:resource="http://purl.org/dc/dcmitype/StillImage" />
        <dc:title></dc:title>
      </cc:Work>
    </rdf:RDF>
  </metadata>
  <g
     inkscape:label="Layer 1"
     inkscape:groupmode="layer"
     id="layer1"
     transform="translate(-91.865594,75.923082)">
    <path
       style="fill:none;stroke:#000000;stroke-width:0.26458332px;stroke-linecap:butt;stroke-linejoin:miter;stroke-opacity:1"
       d="m 148.16666,64.166672 c -3.83025,-3.627321 -6.46609,-8.495758 -7.40975,-13.685916 -0.94367,-5.190158 -0.19021,-10.674831 2.11809,-15.418249 3.19322,-6.561896 9.39786,-11.58179 16.48181,-13.334706 7.08396,-1.752916 14.9136,-0.205783 20.79843,4.10976 5.88483,4.315543 9.71383,11.31808 10.17126,18.601343 0.45743,7.283262 -2.46536,14.709846 -7.764,19.727768"
       id="path4364"
       inkscape:connector-curvature="0"
       inkscape:path-effect="#path-effect4366"
       inkscape:original-d="m 148.16666,64.166672 c -11.46554,2.64e-4 -3.52751,-19.403043 -5.29166,-29.104165 -1.76416,-9.701125 26.4586,19.402512 39.6875,29.104165"
       transform="matrix(1.44,0,0,1.44,-86.097365,-105.99972)"
       sodipodi:nodetypes="csc" />
    <path
       style="fill:none;stroke:#000000;stroke-width:0.26458332px;stroke-linecap:butt;stroke-linejoin:miter;stroke-opacity:1"
       d="m 169.33333,-9.9166595 c 7.49649,10.58328079 14.99302,21.1666155 19.84371,28.6631275 4.85069,7.496511 7.05554,11.906209 5.07121,11.465299 -1.98434,-0.44091 -8.15795,-5.732573 -14.33163,-13.2292 -6.17368,-7.4966263 -12.34722,-17.19790497 -13.67016,-16.75701622 -1.32293,0.44088876 2.20487,11.02429722 3.74831,20.06422222 1.54343,9.039925 1.10247,16.536341 -2.20479,21.607643 -3.30725,5.071302 -9.48064,7.717036 -10.10875,5.910578 -0.62812,-1.806459 4.1558,-7.895086 5.24803,-16.091622 1.09222,-8.196535 -1.53347,-18.261687 -4.39968,-23.9941957 -2.86621,-5.7325086 -5.95307,-7.05544829 -6.61457,-3.7481175 -0.66151,3.3073307 1.10231,11.2445012 2.64573,16.0952932 1.54343,4.850793 2.86631,6.614641 3.01414,8.267067 0.14784,1.652427 -0.58857,2.757033 -2.37623,1.847622 -1.78767,-0.90941 -4.38618,-3.941 -6.59105,-8.350776 -2.20487,-4.409776 -3.96877,-10.142455 -6.64105,-11.442117 -2.67229,-1.2996624 -6.14683,1.740555 -8.58577,7.108615 -2.43895,5.368061 -3.73489,12.711745 -6.42931,17.589571 -2.69442,4.877825 -6.56574,7.028555 -9.87331,5.925997 -3.30758,-1.102559 -5.9532,-5.511929 -6.39401,-7.937273 -0.44081,-2.425344 1.32311,-2.866325 2.86621,-1.984575 1.54311,0.88175 2.86626,3.087001 4.63447,3.082739 1.76821,-0.0043 3.96474,-2.200787 6.19028,-6.448155 2.22554,-4.247368 4.38889,-10.304768 7.47568,-15.155337 3.08678,-4.8505693 7.05574,-8.3785267 7.05016,-9.9381363 -0.006,-1.5596096 -3.96623,-1.1532457 -7.49516,1.6963399 -3.52893,2.8495856 -6.61551,8.1408644 -9.48177,11.6686964 -2.86626,3.527832 -5.51209,5.291719 -5.07117,3.307289 0.44091,-1.98443 3.96868,-7.717053 7.27601,-12.3472549 3.30732,-4.6302014 6.39412,-8.1579733 8.24153,-10.7832355 1.8474,-2.6252621 2.4978,-4.4676856 2.7123,-5.328425 0.21449,-0.8607396 0.0573,-0.9973086 -0.0897,-1.1250196"
       id="path4368"
       inkscape:connector-curvature="0"
       inkscape:path-effect="#path-effect4370"
       inkscape:original-d="m 169.33333,-9.9166595 c 7.49679,10.58306799 14.99332,21.1664015 22.48958,31.7499995 2.20514,4.40948 4.40999,8.819179 6.61459,13.229165 -6.17335,-5.29193 -12.34696,-10.583594 -18.52084,-15.874998 -6.17341,-9.7017655 -12.34695,-19.40304405 -18.52083,-29.1041665 3.52802,10.58299192 7.05582,21.1664015 10.58333,31.7499995 -0.44071,7.496373 -0.88167,14.992789 -1.32291,22.489583 -6.17358,2.645667 -12.34696,5.291402 -18.52084,7.9375 4.82918,-6.328439 9.70166,-12.347487 14.55209,-18.520833 -2.70995,-10.208294 -5.2914,-20.284987 -7.9375,-30.427083 -3.08649,-1.3231574 -6.17335,-2.64609785 -9.26042,-3.96874992 1.76423,7.93756342 3.52804,15.87473492 5.29167,23.81249992 1.32321,1.763667 2.6461,3.527512 3.96875,5.291666 -1.08583,1.501892 -1.76363,2.645569 -2.64584,3.96875 -2.67772,-3.155293 -5.2914,-6.173877 -7.9375,-9.260416 -1.76361,-5.732865 -3.52751,-11.465544 -5.29166,-17.1979167 -3.4826,3.2453051 -7.05529,6.1733457 -10.58334,9.2604167 -1.13786,7.686474 -2.64556,14.992789 -3.96874,22.489583 -4.17009,2.071232 -7.93724,4.409456 -11.90625,6.614583 -2.64578,-4.410337 -5.2914,-8.819709 -7.9375,-13.229166 1.76412,-0.44123 3.52804,-0.882211 5.29166,-1.322919 1.32295,2.204207 2.6461,4.409458 3.96875,6.614583 2.36885,-2.058075 4.40999,-4.409986 6.61459,-6.614583 2.20675,-6.304327 4.40998,-12.347487 6.61458,-18.520833 3.96881,-3.5278609 7.93776,-7.0558205 11.90625,-10.58333373 -3.97966,0.40807783 -7.9403,0.81444223 -11.91129,1.22210503 -3.08677,5.2917902 -6.17335,10.5830697 -9.26042,15.8749997 -2.64557,1.763625 -5.2914,3.527513 -7.9375,5.291667 3.52805,-5.732907 7.05582,-11.465531 10.58334,-17.1979166 3.08707,-3.5280493 6.17387,-7.0558196 9.26041,-10.5833334 0.6084,-1.7229732 1.2588,-3.5653958 1.82441,-5.168125 -0.13652,-0.119086 -0.29374,-0.255651 -0.441,-0.383084"
       sodipodi:nodetypes="cccccccccccccccccccccccccccccccc"
       transform="matrix(1.44,0,0,1.44,-67.229895,1.0947586)" />
    <path
       style="fill:none;stroke:#000000;stroke-width:0.26458332px;stroke-linecap:butt;stroke-linejoin:miter;stroke-opacity:1"
       d="m 169.50489,-10.23912 c -0.0982,0.06733 -0.19681,0.134882 -0.20039,0.224176 -0.004,0.089294 0.0881,0.2002279 0.17973,0.3111901"
       id="path4378"
       inkscape:connector-curvature="0"
       inkscape:path-effect="#path-effect4380"
       inkscape:original-d="m 169.50489,-10.23912 c -0.0983,0.06726 -0.19685,0.134827 -0.29558,0.20257 0.0919,0.1106626 0.18354,0.2215986 0.27492,0.3327961"
       sodipodi:nodetypes="ccc"
       transform="matrix(1.44,0,0,1.44,-67.229895,1.0947586)" />
    <path
       style="fill:none;stroke:#000000;stroke-width:0.26458332px;stroke-linecap:butt;stroke-linejoin:miter;stroke-opacity:1"
       d="m 141.99262,-37.397717 c 0.92779,-0.771627 2.97018,-0.771627 4.03804,-0.740428 1.06785,0.0312 1.16141,0.09357 1.28604,0.950379 0.12463,0.856811 0.28064,2.510507 -0.6938,3.251183 -0.97443,0.740676 -3.07888,0.569201 -4.22495,-0.288501 -1.14606,-0.857703 -1.33313,-2.401007 -0.40533,-3.172633 z"
       id="path4385"
       inkscape:connector-curvature="0"
       inkscape:path-effect="#path-effect4387"
       inkscape:original-d="m 140.87776,-38.169344 c 2.04265,-2.64e-4 4.08504,-2.64e-4 6.12716,0 0.0938,0.06209 0.18735,0.124463 0.28063,0.18709 0.15607,1.651272 0.31208,3.304968 0.46772,4.95785 -2.10478,-0.171789 -4.20923,-0.343263 -6.31424,-0.514496 -0.18684,-1.543923 -0.37391,-3.087227 -0.56127,-4.630444 z"
       transform="matrix(1.44,0,0,1.44,-67.364599,2.9806124)" />
    <path
       style="fill:none;stroke:#000000;stroke-width:0.26458332px;stroke-linecap:butt;stroke-linejoin:miter;stroke-opacity:1"
       d="m 156.47913,-37.190932 c 0.90415,-0.903892 2.84442,-1.168475 3.81442,-0.397024 0.96999,0.771451 0.96999,2.579714 0.066,3.483839 -0.904,0.904124 -2.71172,0.904124 -3.68201,0.132189 -0.97029,-0.771935 -1.10256,-2.315111 -0.19841,-3.219004 z"
       id="path4389"
       inkscape:connector-curvature="0"
       inkscape:path-effect="#path-effect4391"
       inkscape:original-d="m 155.44271,-37.830201 c 1.94054,-0.264848 3.88081,-0.529431 5.82083,-0.79375 2.6e-4,1.807446 2.6e-4,3.615709 0,5.423958 -1.80799,-2.64e-4 -3.61571,-2.64e-4 -5.42396,0 -0.13205,-1.543894 -0.26432,-3.08707 -0.39687,-4.630208 z"
       transform="matrix(1.44,0,0,1.44,-64.266411,-0.25227975)" />
    <path
       style="fill:#ffffff;fill-opacity:0.87064676;fill-rule:evenodd;stroke:#000000;stroke-width:0;stroke-linecap:round;stroke-linejoin:round;stroke-miterlimit:4;stroke-dasharray:none;stroke-dashoffset:22.05000114;stroke-opacity:1;paint-order:stroke markers fill"
       d="m 163.4502,-48.622555 c -0.20956,-0.01802 -0.65927,-0.123725 -0.99939,-0.234878 -0.49069,-0.160372 -0.72814,-0.311986 -1.15005,-0.734344 -0.63007,-0.630737 -0.85093,-1.177281 -0.85093,-2.105627 0,-1.534435 1.17021,-2.675187 3.09022,-3.012394 1.72852,-0.303581 3.00538,0.242875 3.5932,1.537772 0.17375,0.382741 0.21454,0.635214 0.20773,1.285876 -0.01,0.909705 -0.16568,1.433294 -0.60629,2.032424 -0.64262,0.87382 -1.91119,1.349335 -3.28449,1.231171 z"
       id="path4393"
       inkscape:connector-curvature="0" />
    <path
       style="fill:#ffffff;fill-opacity:0.87064676;fill-rule:evenodd;stroke:#000000;stroke-width:0;stroke-linecap:round;stroke-linejoin:round;stroke-miterlimit:4;stroke-dasharray:none;stroke-dashoffset:22.05000114;stroke-opacity:1;paint-order:stroke markers fill"
       d="m 140.51967,-45.51003 c -2.34267,-0.268939 -4.00141,-1.70577 -4.00141,-3.466077 0,-1.321243 0.80785,-2.095577 2.61192,-2.503524 0.93172,-0.210689 4.81956,-0.240655 5.06295,-0.03902 0.24878,0.206073 0.35739,0.73632 0.41685,2.034906 0.0862,1.879178 -0.23789,2.895793 -1.10868,3.479271 -0.64147,0.429814 -1.82909,0.62676 -2.98163,0.494448 z"
       id="path4395"
       inkscape:connector-curvature="0" />
    <path
       style="fill:#ff0000;fill-opacity:0.87064676;fill-rule:evenodd;stroke:#000000;stroke-width:0;stroke-linecap:round;stroke-linejoin:round;stroke-miterlimit:4;stroke-dasharray:none;stroke-dashoffset:22.05000114;stroke-opacity:1;paint-order:stroke markers fill"
       id="path4399"
       d="m 140.22806,-47.839062 c -0.26035,-0.255772 -0.46439,-0.596286 -0.44761,-0.97517 0.005,-0.106824 0.0377,-0.210482 0.0566,-0.315724 0.0761,-0.117648 0.13018,-0.252907 0.22818,-0.352928 0.4387,-0.447355 1.15342,-0.213623 1.67294,-0.05978 0.0736,0.04514 0.16395,0.03361 0.24164,0.06364 0.51398,0.198719 0.48522,0.66497 0.37574,1.239134 -0.023,0.12096 -0.18714,0.16012 -0.2807,0.240178 -0.10488,0.06372 -0.22023,0.101592 -0.33521,0.139896 -0.0343,0.0114 -0.0656,0.03274 -0.1014,0.03864 -0.0192,0.003 0.008,-0.03859 0.0192,-0.05498 0.0167,-0.02796 0.0311,-0.05755 0.0503,-0.08393 0.005,-0.0053 -7.2e-4,0.01325 -0.002,0.01932 -0.0175,0.04522 -0.0336,0.09144 -0.0566,0.134136 -0.0384,0.07122 -0.085,0.137779 -0.12759,0.206662 -0.0574,0.08952 -1.32336,-0.721763 -1.26598,-0.811283 v 0 c -0.008,0.02618 -0.021,0.05132 -0.0242,0.07853 -0.001,0.01267 0.0144,-0.02141 0.0187,-0.03318 0.127,-0.312539 -0.0204,-0.0095 0.18942,-0.404771 0.24886,-0.283644 0.46101,-0.438376 0.83311,-0.517151 -0.23705,0.414711 -0.17632,0.230177 0.013,1.099188 0.012,0.055 0.0931,0.0701 0.11832,0.120427 0.008,0.01582 -0.0337,0.015 -0.0512,0.01354 -0.0596,-0.0048 -0.11796,-0.01988 -0.17639,-0.03199 -0.0612,-0.01267 -0.12182,-0.0282 -0.18268,-0.04226 -0.19162,-0.053 -0.15914,-0.04198 -0.33987,-0.09944 -0.0305,-0.0096 -0.12226,-0.02278 -0.0912,-0.0301 0.15573,-0.03673 0.32514,-0.0079 0.47618,-0.06065 0.11352,-0.0397 0.21568,-0.345566 0.2433,-0.409178 0.002,-0.05687 0.01,-0.113688 0.008,-0.170576 -0.001,-0.03844 -0.0199,-0.07562 -0.0175,-0.114036 7.2e-4,-0.01339 0.0149,0.0223 0.0224,0.03341 0.0468,0.06911 0.0916,0.138873 0.13032,0.213036 0.0655,0.08454 -1.12998,1.011901 -1.19555,0.927361 z"
       inkscape:connector-curvature="0" />
    <path
       style="fill:#ff0000;fill-opacity:0.87064676;fill-rule:evenodd;stroke:#000000;stroke-width:0;stroke-linecap:round;stroke-linejoin:round;stroke-miterlimit:4;stroke-dasharray:none;stroke-dashoffset:22.05000114;stroke-opacity:1;paint-order:stroke markers fill"
       id="path4401"
       d="m 163.64269,-51.349909 c -0.32017,-0.104124 -0.70384,-0.19655 -0.89815,-0.505183 -0.0697,-0.110796 -0.10788,-0.238576 -0.16191,-0.357862 0.012,-0.175881 -0.012,-0.358113 0.0367,-0.52764 0.11748,-0.411422 0.58176,-0.603522 0.9458,-0.716854 0.49777,-0.175446 1.02447,-0.204102 1.54538,-0.120312 0.69628,0.271047 0.83851,0.76298 0.73822,1.447896 -0.0487,0.289845 -0.18015,0.550246 -0.30174,0.813742 -0.23153,0.457794 -0.53396,0.680722 -1.00032,0.872231 -0.0787,0.0206 -0.15623,0.04638 -0.23612,0.06185 -0.27478,0.0532 -0.823,0.02564 -1.00896,-0.04262 -0.12628,-0.04639 -0.19915,-0.181121 -0.29874,-0.271679 -0.14649,-0.0767 -0.0953,-0.236385 -0.15351,-0.349576 -0.006,-0.01032 -0.0187,0.0197 -0.0304,0.01799 -0.0161,-0.0023 -0.0325,-0.0095 -0.0442,-0.02083 -0.0334,-0.03234 -0.0592,-0.0718 -0.0888,-0.107688 -0.23277,-0.3073 -0.26478,-0.672542 -0.20433,-1.040758 0.0678,-0.309214 0.0991,-0.777646 0.48273,-0.891538 0.31165,-0.0925 0.64907,0.03752 0.97361,0.05632 0.34636,0.259872 0.76291,0.556085 0.89958,0.992428 0.0275,0.08778 0.036,0.180428 0.054,0.270641 -0.111,0.253806 -0.11592,0.589261 -0.33292,0.761425 -0.41804,0.331661 -0.68557,0.136872 -1.05726,0.09228 -0.0541,-0.0065 -0.10896,-7.92e-4 -0.16351,-0.0012 -0.10536,-0.04202 0.48882,-1.532424 0.5942,-1.490407 v 0 c 0.0727,0.01913 0.1456,0.03794 0.21827,0.05734 0.0202,0.0055 0.0802,0.01032 0.0605,0.01704 -0.82504,0.278331 -0.48848,-0.106428 -0.78983,0.855477 0.006,0.03994 0.0268,0.08034 0.0181,0.119796 -0.002,0.01411 -0.0305,-0.003 -0.0418,-0.0121 -0.0413,-0.03274 -0.25059,-0.252441 -0.26685,-0.270391 -0.10308,-0.113844 -0.0894,-0.07055 -0.1044,-0.151443 0.25149,-0.01699 0.52482,0.05293 0.75447,-0.05098 0.20315,-0.09193 0.30823,-0.663755 0.23632,-0.282436 -0.0166,0.0875 -0.0246,0.112344 -0.0463,0.19207 -0.005,0.01104 -0.002,0.02972 -0.0144,0.03311 -0.0179,0.0053 -0.0871,-0.312675 0.0266,-0.08222 0.0942,0.122875 0.17909,0.246362 0.24326,0.388224 0.0203,0.0448 0.0348,0.09196 0.0523,0.137923 0.006,0.01411 0.0244,0.05537 0.0163,0.04247 -0.0295,-0.04787 -0.0542,-0.09856 -0.0814,-0.147839 -0.0703,-0.05839 -0.12312,-0.149596 -0.21089,-0.175181 -0.16608,-0.04843 -0.34508,-0.02496 -0.51764,-0.03727 -0.008,-7.92e-4 0.0163,0.0035 0.0242,0.0019 0.0854,-0.01459 0.162,-0.07256 0.25154,-0.0492 0.0946,-0.01176 0.19151,-0.04692 0.28605,-0.05183 0.0144,-7.92e-4 0.0275,0.0108 0.042,0.01068 0.0186,-1.29e-4 0.0343,-0.0163 0.0532,-0.01646 0.0848,-0.149595 0.11868,-0.326281 0.16287,-0.490293 0.0367,-0.120687 0.0239,-0.08516 0.0871,7.92e-4 0.0432,0.05887 0.0931,0.112488 0.13983,0.168745 0.0268,0.02252 0.0581,0.04044 0.08,0.06755 0.006,0.0078 -4e-4,0.02016 -7.2e-4,0.03022 -0.039,3.81e-4 -0.15639,7.92e-4 -0.11736,0.0016 0.091,0.0016 0.18252,0.01008 0.27306,7.92e-4 0.0366,-0.0037 -0.0725,-0.01296 -0.10896,-0.01769 -0.10824,-0.01397 -0.21127,7.92e-4 -0.31768,0.02438 -0.0295,0.01008 -0.32034,0.104964 -0.3603,0.08897 -0.0881,-0.03533 0.29799,-0.609292 0.0323,-0.646572 -0.0372,-0.07375 -0.0785,-0.145589 -0.11148,-0.221271 -0.005,-0.0091 -0.008,-0.02998 0.001,-0.02987 0.1381,0.0019 0.44317,0.193305 0.55571,0.281703 0.0898,0.05766 -0.72575,1.327325 -0.81553,1.269657 z"
       inkscape:connector-curvature="0" />
    <path
       style="fill:none;stroke:#000000;stroke-width:0.26458332px;stroke-linecap:butt;stroke-linejoin:miter;stroke-opacity:1"
       d="m 144.73829,-40.983211 c 1.57634,0.441066 3.56071,1.896273 4.64107,2.712053 1.08036,0.815779 1.25675,0.99217 0.90405,0.937076 -0.35269,-0.05509 -1.23464,-0.341726 -2.44747,-0.804805 -1.21283,-0.463078 -2.75595,-1.102372 -3.97964,-1.488239 -1.22369,-0.385867 -2.12761,-0.518148 -1.99513,-0.871088 0.13248,-0.35294 1.30077,-0.926063 2.87712,-0.484997 z"
       id="path4403"
       inkscape:connector-curvature="0"
       inkscape:path-effect="#path-effect4405"
       inkscape:original-d="m 144.33021,-41.997388 c 1.98464,1.454944 3.96901,2.910152 5.95312,4.365625 0.17665,0.17612 0.35304,0.352512 0.52917,0.529166 -0.88168,-0.286895 -1.76363,-0.573529 -2.64584,-0.859895 -1.54342,-0.639792 -3.08654,-1.279084 -4.6302,-1.91823 -0.90381,-0.132566 -1.80773,-0.264848 -2.71198,-0.396875 1.16912,-0.573669 2.33741,-1.146791 3.50573,-1.719791 z"
       transform="matrix(1.44,0,0,1.44,-67.229895,1.0947586)" />
    <path
       style="fill:none;stroke:#000000;stroke-width:0.26458332px;stroke-linecap:butt;stroke-linejoin:miter;stroke-opacity:1"
       d="m 155.42093,-39.131275 c 0.33069,-0.727685 1.76385,-2.491573 3.06457,-3.097785 1.30071,-0.606212 2.46947,-0.05491 2.71214,0.385945 0.24267,0.440854 -0.4409,0.771613 -1.35618,1.22374 -0.91529,0.452127 -2.06129,1.025127 -3.02051,1.466157 -0.95922,0.441031 -1.7307,0.749627 -1.40002,0.02194 z"
       id="path4407"
       inkscape:connector-curvature="0"
       inkscape:path-effect="#path-effect4409"
       inkscape:original-d="m 154.31823,-38.094784 c 1.43342,-1.764154 2.86658,-3.528042 4.29948,-5.291667 1.16865,0.55086 2.33741,1.102167 3.50573,1.653646 -0.68318,0.330433 -1.36675,0.661194 -2.05053,0.992188 -1.14679,0.573264 -2.29279,1.146262 -3.43958,1.719791 -0.77165,0.308502 -1.54314,0.617096 -2.3151,0.926042 z"
       transform="matrix(1.44,0,0,1.44,-67.229895,1.0947586)" />
    <path
       style="fill:none;stroke:#000000;stroke-width:0.26458332px;stroke-linecap:butt;stroke-linejoin:miter;stroke-opacity:1"
       d="m 148.40834,-16.607609 c -1.13818,0.701509 -1.38762,1.075686 -1.57484,1.637261 -0.18722,0.561575 -0.31184,1.30932 -0.88894,1.106553 -0.57709,-0.202767 -1.60567,-1.356022 -1.73031,-2.728145 -0.12465,-1.372122 0.6549,-2.962399 2.54115,-4.147097 1.88626,-1.184698 4.88028,-1.964392 8.32556,-1.824066 3.44527,0.140326 7.34336,1.200607 9.12065,2.852998 1.77728,1.652392 1.43427,3.897559 0.43636,4.45892 -0.99791,0.56136 -2.65031,-0.561024 -3.57021,-1.636925 -0.9199,-1.075902 -1.10699,-2.104853 -2.22915,-2.510145 -1.12216,-0.405292 -3.18056,-0.186978 -5.22307,0.436658 -2.04251,0.623637 -4.06902,1.652479 -5.2072,2.353988 z"
       id="path4411"
       inkscape:connector-curvature="0"
       inkscape:path-effect="#path-effect4413"
       inkscape:original-d="m 147.51941,-16.279971 c -0.24918,0.373915 -0.49863,0.748091 -0.74835,1.122535 -0.12456,0.748699 -0.24919,1.496444 -0.37418,2.245064 -1.02913,-1.154441 -2.05771,-2.307694 -3.08696,-3.461142 0.77979,-1.590495 1.55934,-3.180771 2.33861,-4.77076 2.99308,-0.779645 5.9871,-1.559338 8.98025,-2.33861 3.89754,1.059794 7.79563,2.120075 11.69305,3.180509 -0.34272,2.244695 -0.68573,4.489862 -1.02899,6.735191 -1.65257,-1.122945 -3.30497,-2.245329 -4.95785,-3.367596 -0.18683,-1.029287 -0.37391,-2.058239 -0.56127,-3.086962 -2.05729,0.217961 -4.11569,0.436274 -6.17392,0.654809 -2.02682,1.028869 -4.05333,2.057712 -6.08039,3.086962 z"
       transform="matrix(1.44,0,0,1.44,-67.229895,1.0947586)" />
    <path
       style="opacity:1;fill:url(#radialGradient4552);fill-opacity:1;fill-rule:evenodd;stroke:#000000;stroke-width:0;stroke-linecap:round;stroke-linejoin:round;stroke-miterlimit:4;stroke-dasharray:none;stroke-dashoffset:22.05000114;stroke-opacity:1;paint-order:stroke markers fill"
       d="m 606.86198,-63.246614 c -3.51109,-2.04205 -2.4806,-5.71747 8.59934,-30.671 15.87534,-35.753386 20.55516,-56.998976 19.32837,-87.747416 -1.44621,-36.24795 -11.46341,-75.19955 -26.967,-104.86044 -14.02043,-26.82336 -31.12593,-35.49961 -35.84743,-18.18253 -1.56951,5.75649 -0.45395,27.67192 2.11466,41.54297 4.82046,26.03154 13.19926,54.14238 23.39794,78.5 6.49056,15.50148 6.32495,24.5 -0.4509,24.5 -4.83411,0 -10.02524,-3.32048 -17.51049,-11.20049 -12.26509,-12.91196 -19.81825,-25.77508 -35.11396,-59.79951 -11.88351,-26.43417 -19.24598,-36.56186 -28.36404,-39.0171 -13.98213,-3.765 -31.26601,11.00439 -43.9044,37.5171 -4.42554,9.28385 -9.89402,24.63878 -20.47797,57.5 -13.7351,42.64496 -25.18504,60.7854 -44.30915,70.20017 -5.91233,2.91063 -7.64896,3.29755 -14.72394,3.2805 -6.81659,-0.0164 -8.82291,-0.43877 -13.36124,-2.81256 -6.76265,-3.53724 -13.18845,-9.44851 -18.76311,-17.2607 -9.23963,-12.94818 -13.50686,-26.53792 -10.0092,-31.87603 1.34449,-2.05194 2.46442,-2.53138 5.91307,-2.53138 4.82928,0 6.52901,0.98294 15.90597,9.19828 8.06737,7.06798 14.53458,10.2145 19.09282,9.28933 7.39677,-1.5013 17.38733,-10.79329 25.91308,-24.10117 3.74249,-5.84166 13.41184,-25.34016 21.26749,-42.88644 9.48911,-21.19479 20.45136,-42.48381 27.291,-53 3.21945,-4.95 11.62623,-16.2 18.68174,-25 15.12298,-18.86215 17.29732,-21.99983 18.12979,-26.1622 0.48743,-2.43717 0.13307,-3.62229 -1.60185,-5.35721 -2.0083,-2.0083 -2.95943,-2.18079 -9.65584,-1.75104 -6.28178,0.40314 -8.84761,1.18368 -16.62643,5.05784 -16.64403,8.2894 -25.50265,17.2362 -49.22259,49.71261 -13.7592,18.83856 -23.03039,30.34204 -29.13703,36.15256 -4.11835,3.91864 -11.06982,8.84744 -12.47824,8.84744 -1.9453,0 -0.60686,-5.1662 3.55242,-13.7119 11.35147,-23.32285 32.50933,-54.50141 63.98418,-94.2881 18.4995,-23.38483 26.4987,-36.16933 29.9905,-47.9315 0.88684,-2.98733 1.61244,-5.78493 1.61244,-6.21689 0,-0.43196 -2.974,-4.06278 -6.60888,-8.0685 -16.79236,-18.50551 -27.08651,-37.64146 -33.20365,-61.72274 -2.48146,-9.76877 -2.68191,-12.09704 -2.67404,-31.06037 0.008,-19.1963 0.1863,-21.1846 2.80426,-31.26503 6.9904,-26.91644 18.27889,-46.39059 37.85121,-65.29844 16.1257,-15.57822 35.50315,-26.91012 56.25453,-32.89753 13.25607,-3.82478 21.53914,-4.91523 37.07657,-4.88105 15.72375,0.0346 27.72466,1.89686 42,6.51746 70.32052,22.7611 109.14557,99.43249 85.9153,169.66481 -6.2981,19.04112 -16.86172,36.82872 -30.80922,51.87824 -3.70753,4.00047 -5.4936,6.67555 -5.0075,7.5 0.41558,0.70485 7.11944,10.28154 14.89746,21.28154 84.44907,119.43133 116.84518,169.00404 123.0645,188.31397 2.27685,7.06923 1.11062,8.39648 -4.83825,5.50629 -15.59575,-7.577 -50.70751,-41.57457 -78.30509,-75.82026 -4.43229,-5.5 -18.88568,-24.4 -32.11864,-42 -27.5003,-36.57573 -33.84183,-43.7995 -38.02792,-43.31841 -2.54699,0.29271 -2.79539,0.70548 -3.07728,5.11357 -0.37165,5.81187 0.98354,12.74764 9.80956,50.20484 12.73312,54.03877 14.97782,67.90775 15.69944,97 0.44135,17.7932 0.22058,24.1034 -1.15454,33 -4.7629,30.81449 -18.45166,53.075576 -41.7321,67.866046 -9.69756,6.16103 -20.58387,9.5774 -24.06572,7.55237 z M 543.85921,-400.41503 c 0.54567,-0.6875 1.53669,-2.9406 2.20227,-5.00688 1.42136,-4.41259 5.35414,-7.3793 18.5505,-13.99364 11.71029,-5.86949 24.01362,-9.69746 33.52582,-10.43099 10.36908,-0.79961 14.11998,0.54806 18.12269,6.51133 8.80224,13.11364 18.82622,19.41952 26.30669,16.549 4.31363,-1.6553 5.98782,-12.53563 2.92277,-18.99474 -2.70566,-5.70176 -10.61028,-11.94266 -19.43848,-15.34717 -37.26318,-14.3702 -82.75387,-6.96253 -94.1253,15.3273 -2.47279,4.84708 -2.58428,13.21277 -0.23804,17.86194 3.6605,7.25343 9.51382,10.8718 12.17108,7.52385 z m -5.40058,-98.69034 c 7.76907,-1.80285 11.37033,-8.47302 10.09324,-18.69447 -0.95475,-7.64157 -1.97808,-8.36519 -11.82982,-8.36519 -15.52534,0 -22.61007,3.93501 -22.61007,12.55813 0,6.8005 6.11351,12.71253 15,14.50564 4.9122,0.99119 5.05784,0.99112 9.34665,-0.004 z m 89.7414,-13.60519 c 5.87953,-3.04042 8.06509,-13.07511 4.26753,-19.59376 -6.27094,-10.76429 -28.35558,-4.47702 -28.35558,8.07254 0,2.91784 2.3389,8.27542 4.33562,9.93133 4.92768,4.0866 13.57789,4.78287 19.75243,1.58989 z m -62.08805,-15.36971 c 0,-1.18081 -10.03699,-8.71921 -19.27681,-14.47806 -11.76354,-7.33181 -23.65018,-9.10828 -28.49922,-4.25925 -2.50378,2.50378 -0.70763,4.31071 6.4482,6.48693 3.75531,1.14205 13.35283,4.55862 21.32783,7.59236 13.77626,5.24058 20,6.69009 20,4.65802 z m 43.05991,-13.33476 c 12.92955,-6.4916 14.47342,-7.54001 14.75867,-10.02237 0.27041,-2.35321 -0.21611,-2.99578 -3.21788,-4.25 -7.19166,-3.00487 -12.79509,-1.24429 -21.13076,6.63924 -8.86382,8.38303 -11.78625,14.88313 -6.69142,14.88313 1.01271,0 8.33934,-3.2625 16.28139,-7.25 z"
       id="path4442"
       inkscape:connector-curvature="0"
       transform="matrix(0.26458333,0,0,0.26458333,0,87)" />
    <path
       style="opacity:1;fill:#000000;fill-opacity:1;fill-rule:evenodd;stroke:#000000;stroke-width:0;stroke-linecap:round;stroke-linejoin:round;stroke-miterlimit:4;stroke-dasharray:none;stroke-dashoffset:22.05000114;stroke-opacity:1;paint-order:stroke markers fill"
       d="m 538.15601,-402.58076 c -1.13927,-0.95863 -3.00684,-3.43982 -4.15016,-5.51376 -5.92252,-10.74323 0.39638,-23.47335 15.32152,-30.86691 11.91111,-5.90048 29.18127,-8.68158 44.85978,-7.22399 29.82812,2.77304 49.0803,12.77939 50.95901,26.48601 0.93762,6.84075 -1.75296,11.72317 -6.46035,11.72317 -5.27176,0 -12.63825,-5.21301 -17.79745,-12.59464 -7.15403,-10.2358 -9.16669,-11.43631 -19.18428,-11.44304 -11.34129,-0.008 -24.01355,3.6432 -39.59161,11.40619 -12.41597,6.18724 -16.44962,9.54756 -18.36698,15.30106 -0.7623,2.28747 -1.82066,4.13948 -2.43354,4.25841 -0.5965,0.11576 -2.01668,-0.57386 -3.15594,-1.5325 z"
       id="path4554"
       inkscape:connector-curvature="0"
       transform="matrix(0.26458333,0,0,0.26458333,0,87)" />
    <path
       style="fill:none;stroke:#000000;stroke-width:0.26458332px;stroke-linecap:butt;stroke-linejoin:miter;stroke-opacity:1"
       d="m 175.24248,-45.216698 c 0.52934,-1.653667 2.07274,-2.888387 3.43947,-2.227111 1.36673,0.661276 2.55758,3.219395 2.02855,4.873063 -0.52904,1.653669 -2.7779,2.403288 -4.14513,1.74164 -1.36722,-0.661649 -1.85222,-2.733925 -1.32289,-4.387592 z"
       id="path4564"
       inkscape:connector-curvature="0"
       inkscape:path-effect="#path-effect4566"
       inkscape:original-d="m 174.22812,-45.635409 c 1.54367,-1.234988 3.08707,-2.469708 4.63021,-3.704167 1.19067,2.556894 2.38152,5.115013 3.57188,7.672917 -2.2488,0.749422 -4.49766,1.499042 -6.74688,2.248958 -0.48487,-2.073127 -0.96987,-4.145404 -1.45521,-6.217708 z" />
    <path
       style="fill:none;stroke:#000000;stroke-width:0.26458332px;stroke-linecap:butt;stroke-linejoin:miter;stroke-opacity:1"
       d="m 154.64912,-14.172131 c 1.58737,0.02216 3.04257,1.212788 2.77815,2.182847 -0.26442,0.970059 -2.24883,1.719726 -3.83655,1.697693 -1.58773,-0.02203 -2.77816,-0.815653 -2.51341,-1.785944 0.26475,-0.970292 1.98445,-2.116758 3.57181,-2.094596 z"
       id="path4580"
       inkscape:connector-curvature="0"
       inkscape:path-effect="#path-effect4582"
       inkscape:original-d="m 154.78125,-15.340618 c 1.45547,1.190361 2.91068,2.380986 4.36562,3.571875 -1.98407,0.749374 -3.96848,1.499042 -5.95312,2.2489585 -1.19056,-0.7941415 -2.38099,-1.5877645 -3.57188,-2.3812495 1.72015,-1.146853 3.43985,-2.293321 5.15938,-3.439584 z" />
    <path
       style="fill:none;stroke:#000000;stroke-width:0.26458332px;stroke-linecap:butt;stroke-linejoin:miter;stroke-opacity:1"
       d="m 151.45195,-66.934408 c 1.91813,1.278726 2.49139,2.689837 1.16847,3.285215 -1.32292,0.595377 -4.54171,0.374912 -6.46011,-0.904096 -1.9184,-1.279008 -2.53571,-3.615984 -1.21282,-4.211223 1.32289,-0.595239 4.58634,0.551379 6.50446,1.830104 z"
       id="path4584"
       inkscape:connector-curvature="0"
       inkscape:path-effect="#path-effect4586"
       inkscape:original-d="m 152.79687,-67.066659 c 0.57353,1.410846 1.14679,2.821959 1.71979,4.233334 -3.21914,-0.220771 -6.43793,-0.441238 -9.65729,-0.661459 -0.61714,-2.337596 -1.23446,-4.674571 -1.85208,-7.011458 3.2632,1.146175 6.52665,2.292792 9.78958,3.439583 z" />
    <path
       style="opacity:1;fill:#000000;fill-opacity:1;fill-rule:evenodd;stroke:#000000;stroke-width:1;stroke-linecap:round;stroke-linejoin:round;stroke-miterlimit:4;stroke-dasharray:none;stroke-dashoffset:22.05000114;stroke-opacity:1;paint-order:stroke markers fill"
       d="m 564.65825,-568.94532 c -9.83061,-1.54619 -16.88527,-6.52043 -18.66041,-13.15746 -1.27715,-4.77513 1.27203,-7.16273 7.06362,-6.6159 8.77363,0.8284 22.59463,8.09609 25.28306,13.29495 1.46858,2.83991 0.68001,4.74287 -2.46012,5.93674 -1.98674,0.75536 -8.01744,1.04634 -11.22615,0.54167 z"
       id="path4588"
       inkscape:connector-curvature="0"
       transform="matrix(0.26458333,0,0,0.26458333,0,87)" />
    <path
       style="opacity:1;fill:#ffffff;fill-opacity:1;fill-rule:evenodd;stroke:#000000;stroke-width:0;stroke-linecap:round;stroke-linejoin:round;stroke-miterlimit:4;stroke-dasharray:none;stroke-dashoffset:22.05000114;stroke-opacity:1;paint-order:stroke markers fill"
       d="m 669.19316,-483.06781 c -5.75842,-1.23561 -8.82842,-9.79089 -6.11542,-17.04203 2.12776,-5.68697 6.90903,-9.13764 10.97373,-7.91983 3.98263,1.19323 8.16303,7.63476 8.87922,13.68188 0.83846,7.07948 -6.23721,12.88936 -13.73753,11.27998 z"
       id="path4590"
       inkscape:connector-curvature="0"
       transform="matrix(0.26458333,0,0,0.26458333,0,87)" />
    <path
       style="opacity:1;fill:#ffffff;fill-opacity:1;fill-rule:evenodd;stroke:#000000;stroke-width:2;stroke-linecap:round;stroke-linejoin:round;stroke-miterlimit:4;stroke-dasharray:none;stroke-dashoffset:22.05000114;stroke-opacity:1;paint-order:stroke markers fill"
       d="m 564.3416,-567.99162 c -10.88417,-1.69023 -18.55305,-7.61762 -19.58362,-15.13644 -0.5643,-4.11704 2.10832,-6.83586 6.71972,-6.83586 4.86934,0 14.76885,3.56455 20.75836,7.47454 8.18862,5.34559 10.19224,11.09804 4.71006,13.52268 -2.57988,1.14102 -8.55796,1.60348 -12.60452,0.97508 z"
       id="path4592"
       inkscape:connector-curvature="0"
       transform="matrix(0.26458333,0,0,0.26458333,0,87)" />
    <path
       style="opacity:1;fill:#ffffff;fill-opacity:1;fill-rule:evenodd;stroke:#000000;stroke-width:0;stroke-linecap:round;stroke-linejoin:round;stroke-miterlimit:4;stroke-dasharray:none;stroke-dashoffset:22.05000114;stroke-opacity:1;paint-order:stroke markers fill"
       d="m 575.69145,-369.06131 c -0.89776,-0.3033 -2.19151,-1.06972 -2.875,-1.70316 -4.75099,-4.40307 5.72229,-12.41941 13.98482,-10.70412 3.26982,0.67881 6.3639,2.81119 7.27674,5.01498 1.00289,2.4212 -0.0163,3.86935 -4.2016,5.96974 -3.07803,1.54472 -3.93505,1.74312 -8,1.85204 -2.50397,0.0671 -5.2872,-0.12618 -6.18496,-0.42948 z"
       id="path4594"
       inkscape:connector-curvature="0"
       transform="matrix(0.26458333,0,0,0.26458333,0,87)" />
    <path
       style="opacity:1;fill:#ff0000;fill-opacity:1;fill-rule:evenodd;stroke:#000000;stroke-width:0;stroke-linecap:round;stroke-linejoin:round;stroke-miterlimit:4;stroke-dasharray:none;stroke-dashoffset:22.05000114;stroke-opacity:1;paint-order:stroke markers fill"
       id="path4610"
       d="m 147.58178,-66.538654 c 0.007,-0.0085 0.0289,-0.0204 0.0195,-0.02561 -0.002,-0.0011 -0.0819,0.06826 -0.10918,0.195117 -0.0511,0.237625 -0.009,0.272243 0.0539,0.512066 -0.006,0.324043 -0.0322,0.199335 0.50305,0.220494 0.022,7.93e-4 -0.0663,0.01175 -0.0654,-0.01029 10e-4,-0.03056 0.0456,-0.04077 0.0684,-0.06116 0.23348,-0.263009 0.28659,-0.269181 0.36757,-0.696301 0.0215,-0.113488 -0.0147,-0.230595 -0.0182,-0.346051 -8e-4,-0.02313 -0.0173,-0.07217 0.006,-0.06915 0.0227,0.003 0.14958,0.14093 0.1679,0.160178 0.0422,0.05897 0.0845,0.117938 0.12671,0.176906 0.0816,0.122894 -1.65641,1.276342 -1.73797,1.153451 v 0 c -0.006,0.0019 -0.0111,0.0039 -0.0166,0.0059 -0.54972,-0.476377 -0.76286,-1.043678 -0.41852,-1.759638 0.0692,-0.143973 0.21026,-0.240593 0.31539,-0.360892 0.10979,-0.05972 0.2138,-0.131572 0.32936,-0.17916 0.0834,-0.03432 0.17256,-0.06029 0.2626,-0.0646 0.78993,-0.03774 1.23919,-5.29e-4 1.80852,0.537613 0.10117,0.170561 0.23731,0.324749 0.30352,0.511683 0.21965,0.620193 -0.0471,1.308549 -0.54668,1.702226 -0.0861,0.06783 -0.19125,0.10709 -0.28687,0.160636 -0.1247,0.08009 -1.25736,-1.683324 -1.13267,-1.763416 z"
       inkscape:connector-curvature="0" />
    <path
       style="opacity:1;fill:#ff0000;fill-opacity:1;fill-rule:evenodd;stroke:#000000;stroke-width:0;stroke-linecap:round;stroke-linejoin:round;stroke-miterlimit:4;stroke-dasharray:none;stroke-dashoffset:22.05000114;stroke-opacity:1;paint-order:stroke markers fill"
       id="path4616"
       d="m 178.78115,-43.565418 c -0.0834,0.0321 -0.17137,0.05411 -0.25011,0.0963 -0.38748,0.207616 -0.68664,0.64407 -0.85088,1.037579 -0.0617,0.09566 -0.0717,0.296503 -0.18513,0.286983 -1.32086,-0.110847 -1.57404,-0.107307 -1.33784,-1.088945 0.005,-0.02273 0.33933,-0.534263 0.34523,-0.544545 0.0474,-0.08253 0.0847,-0.170473 0.12699,-0.255711 0.01,-0.0072 0.16064,-0.374523 0.0786,-0.394047 -0.11411,-0.02714 5.3e-4,0.294857 -0.10163,-0.0058 -0.0124,-0.03347 -0.0248,-0.06694 -0.0372,-0.100404 -0.002,-0.133128 1.8809,-0.158801 1.88271,-0.02567 v 0 c -0.0119,-0.0019 -0.0238,-0.0037 -0.0357,-0.0055 -0.0733,0.151691 0.0264,-0.07327 -0.0182,0.323924 -0.0372,0.331605 -0.24501,0.58049 -0.4509,0.825486 -0.10421,0.150718 -0.15021,0.175419 -0.16959,0.361318 -0.005,0.0466 0.0142,0.186508 0.0157,0.139679 0.004,-0.126587 0.1049,-0.322665 -0.008,-0.379862 -1.36931,-0.693105 -1.30018,-0.695471 -1.35082,-0.09191 0.059,-0.01588 0.12575,-0.01429 0.17695,-0.04759 0.077,-0.0501 0.13281,-0.127164 0.19527,-0.194554 0.26363,-0.284445 0.51664,-0.606927 0.62412,-0.984273 0.0741,-0.0955 1.42462,0.952087 1.35054,1.047585 z"
       inkscape:connector-curvature="0" />
    <path
       style="opacity:1;fill:#ff0000;fill-opacity:1;fill-rule:evenodd;stroke:#000000;stroke-width:0;stroke-linecap:round;stroke-linejoin:round;stroke-miterlimit:4;stroke-dasharray:none;stroke-dashoffset:22.05000114;stroke-opacity:1;paint-order:stroke markers fill"
       id="path4622"
       d="m 153.7211,-11.90204 c 0.2076,-0.134297 0.40099,-0.288094 0.60207,-0.431731 0.0984,-0.07028 0.24278,-0.146542 0.31949,-0.244525 -0.1565,0.130273 -0.0868,0.03823 -0.0615,0.389458 5.3e-4,0.0087 0.0181,0.02861 0.011,0.02365 -0.11731,-0.08158 -0.17907,-0.204144 -0.24243,-0.327358 -0.10806,-0.295013 -0.0944,-0.111043 -0.0658,-0.0959 0.0486,0.02574 0.12509,-0.01463 0.16303,0.02516 0.0259,0.02713 -0.0716,0.02212 -0.10742,0.03317 -0.18905,0.09046 -0.4133,0.174111 -0.51043,0.369276 -0.057,0.274762 -0.13401,0.380405 -0.38096,0.508021 -0.0384,0.01894 -0.30641,-0.524616 -0.26797,-0.543563 v 0 c -0.003,0.01093 -0.015,0.132869 0.0345,0.05493 0.0231,-0.0365 0.0651,-0.234204 0.0665,-0.240064 0.16149,-0.331211 0.42942,-0.418351 0.7329,-0.594971 0.056,-0.03337 0.10462,-0.08455 0.16789,-0.100124 0.37623,-0.0926 0.62076,-0.03111 0.71746,0.350163 0.0331,0.06221 0.15285,0.08304 0.17292,0.133887 0.14064,0.356396 0.13216,0.309949 -0.0331,0.476552 -0.1325,0.0526 -0.0623,0.03082 -0.21135,0.06298 -0.26353,0.09534 -0.4814,0.286888 -0.65654,0.500179 -0.0247,0.03183 -0.47487,-0.317362 -0.45018,-0.349197 z"
       inkscape:connector-curvature="0" />
    <path
       style="fill:#ffffff;stroke:#000000;stroke-width:0.26458332px;stroke-linecap:butt;stroke-linejoin:miter;stroke-opacity:1"
       d="m 141.55208,-26.717701 c 0.0885,0 0.17665,0 0.61638,0.142914 0.43972,0.142914 1.23585,0.430406 1.43423,0.209915 0.19837,-0.220491 -0.19858,-0.948233 -0.39699,-1.33417 -0.19841,-0.385936 -0.19841,-0.430036 -0.19841,-0.473867"
       id="path4624"
       inkscape:connector-curvature="0"
       inkscape:path-effect="#path-effect4626"
       inkscape:original-d="m 141.55208,-26.717701 c 0.0885,-2.65e-4 0.17665,-2.65e-4 0.26458,0 0.79164,0.285507 1.58777,0.573 2.38125,0.859896 -0.39653,-0.727731 -0.79348,-1.455473 -1.19062,-2.182813 2.6e-4,-0.04436 2.6e-4,-0.08846 0,-0.132291" />
    <path
       style="fill:#ffffff;stroke:#000000;stroke-width:0.26458332px;stroke-linecap:butt;stroke-linejoin:miter;stroke-opacity:1"
       d="m 144.33021,-28.63593 c 0.57325,0.639391 1.14651,1.278803 1.36699,1.091273 0.22047,-0.187529 0.0882,-1.201743 -0.0441,-2.215752"
       id="path4628"
       inkscape:connector-curvature="0"
       inkscape:path-effect="#path-effect4630"
       inkscape:original-d="m 144.33021,-28.63593 c 0.57352,0.639146 1.14679,1.278554 1.71979,1.918229 -0.13203,-1.014524 -0.26432,-2.028738 -0.39688,-3.042708" />
    <path
       style="fill:#ffffff;stroke:#000000;stroke-width:0.26458332px;stroke-linecap:butt;stroke-linejoin:miter;stroke-opacity:1"
       d="m 140.69219,-24.601034 c 0.97043,-0.154388 1.94057,-0.308729 1.97375,0.176046 0.0332,0.484776 -0.87109,1.6096 -1.77532,2.73437"
       id="path4632"
       inkscape:connector-curvature="0"
       inkscape:path-effect="#path-effect4634"
       inkscape:original-d="m 140.69219,-24.601034 c 0.9704,-0.154604 1.94054,-0.308946 2.91041,-0.463021 -0.90345,1.123868 -1.80772,2.248694 -2.71198,3.373437" />
    <path
       style="fill:#ffffff;stroke:#000000;stroke-width:0.26458332px;stroke-linecap:butt;stroke-linejoin:miter;stroke-opacity:1"
       d="m 145.05781,-21.955201 c 0.0442,-0.26489 0.0882,-0.529474 0.16535,-0.970093 0.0771,-0.44062 0.18748,-1.058682 0.40783,-1.036697 0.22036,0.02199 0.55125,0.683766 0.88203,1.345332"
       id="path4636"
       inkscape:connector-curvature="0"
       inkscape:path-effect="#path-effect4638"
       inkscape:original-d="m 145.05781,-21.955201 c 0.0444,-0.264848 0.0885,-0.529431 0.13229,-0.79375 0.11038,-0.616926 0.22075,-1.234988 0.33073,-1.852083 0.33083,0.660871 0.66172,1.322652 0.99219,1.984375" />
    <path
       style="fill:#ffffff;stroke:#000000;stroke-width:0.26458332px;stroke-linecap:butt;stroke-linejoin:miter;stroke-opacity:1"
       d="m 147.10833,-30.157284 c 0.55116,1.080278 1.10238,2.160658 1.34493,2.050281 0.24255,-0.110377 0.17641,-1.411121 0.11028,-2.71174"
       id="path4640"
       inkscape:connector-curvature="0"
       inkscape:path-effect="#path-effect4642"
       inkscape:original-d="m 147.10833,-30.157284 c 0.55148,1.080116 1.10269,2.1605 1.65365,3.241146 -0.0659,-1.301256 -0.13203,-2.602 -0.19844,-3.902605" />
    <path
       style="fill:#ffffff;stroke:#000000;stroke-width:0.26458332px;stroke-linecap:butt;stroke-linejoin:miter;stroke-opacity:1"
       d="m 153.59062,-25.857805 c 0.72784,-0.926333 1.45544,-1.852377 1.75304,-1.973757 0.29759,-0.12138 0.16525,0.562342 0.0329,1.246153"
       id="path4644"
       inkscape:connector-curvature="0"
       inkscape:path-effect="#path-effect4646"
       inkscape:original-d="m 153.59062,-25.857805 c 0.72787,-0.926306 1.45548,-1.852348 2.18282,-2.778125 -0.13199,0.683027 -0.26432,1.36675 -0.39688,2.050521" />
    <path
       style="fill:#ffffff;stroke:#000000;stroke-width:0.26458332px;stroke-linecap:butt;stroke-linejoin:miter;stroke-opacity:1"
       d="m 151.07708,-31.215618 c 0.13224,0.330593 0.26453,0.661321 0.54023,1.245799 0.27569,0.584477 0.69444,1.421976 1.00319,1.201315 0.30874,-0.220662 0.50715,-1.499323 0.70554,-2.777843"
       id="path4648"
       inkscape:connector-curvature="0"
       inkscape:path-effect="#path-effect4650"
       inkscape:original-d="m 151.07708,-31.215618 c 0.13256,0.330465 0.26485,0.661194 0.39688,0.992188 0.41936,0.83793 0.83811,1.675429 1.25677,2.513542 0.19872,-1.279245 0.39714,-2.557905 0.59531,-3.836459" />
    <path
       style="fill:#ffffff;stroke:#000000;stroke-width:0.26458332px;stroke-linecap:butt;stroke-linejoin:miter;stroke-opacity:1"
       d="m 154.78125,-31.414055 c 0.41888,0.683432 0.8378,1.366939 1.17965,1.344729 0.34185,-0.02221 0.6064,-0.749735 0.87087,-1.477021"
       id="path4653"
       inkscape:connector-curvature="0"
       inkscape:path-effect="#path-effect4655"
       inkscape:original-d="m 154.78125,-31.414055 c 0.41919,0.683241 0.83811,1.36675 1.25677,2.050521 0.26488,-0.727948 0.52943,-1.455473 0.79375,-2.182813" />
    <path
       style="fill:#ffffff;stroke:#000000;stroke-width:0.26458332px;stroke-linecap:butt;stroke-linejoin:miter;stroke-opacity:1"
       d="m 159.60989,-30.752597 c -0.0661,0.506828 -0.13225,1.013941 -0.0771,1.466138 0.0551,0.452197 0.23141,0.848845 0.49613,0.550937 0.26472,-0.297908 0.61739,-1.289787 0.97006,-2.281658"
       id="path4657"
       inkscape:connector-curvature="0"
       inkscape:path-effect="#path-effect4659"
       inkscape:original-d="m 159.60989,-30.752597 c -0.0659,0.506855 -0.13202,1.013971 -0.19843,1.521354 0.17675,0.396841 0.35304,0.793486 0.52916,1.190625 0.35315,-0.992759 0.70582,-1.984639 1.05834,-2.976562" />
    <path
       style="fill:#ffffff;stroke:#000000;stroke-width:0.26458332px;stroke-linecap:butt;stroke-linejoin:miter;stroke-opacity:1"
       d="m 163.57864,-30.22343 c -0.11021,0.991897 -0.22045,1.984084 0.0443,2.039073 0.26477,0.05499 0.904,-0.826702 1.54319,-1.708344"
       id="path4661"
       inkscape:connector-curvature="0"
       inkscape:path-effect="#path-effect4663"
       inkscape:original-d="m 163.57864,-30.22343 c -0.10998,0.991923 -0.22022,1.98411 -0.33073,2.976562 0.63986,-0.882467 1.27909,-1.764154 1.91823,-2.645833" />
    <path
       style="fill:#ffffff;stroke:#000000;stroke-width:0.26458332px;stroke-linecap:butt;stroke-linejoin:miter;stroke-opacity:1"
       d="m 167.81198,-28.305201 c -0.6171,0.639142 -1.23447,1.278549 -1.12402,1.355661 0.11045,0.07711 0.94794,-0.40775 1.78548,-0.89264"
       id="path4665"
       inkscape:connector-curvature="0"
       inkscape:path-effect="#path-effect4667"
       inkscape:original-d="m 167.81198,-28.305201 c -0.6171,0.639146 -1.23446,1.278554 -1.85209,1.918229 0.83847,-0.485539 1.67596,-0.970404 2.51355,-1.455208" />
    <path
       style="fill:#ffffff;stroke:#000000;stroke-width:0.26458332px;stroke-linecap:butt;stroke-linejoin:miter;stroke-opacity:1"
       d="m 170.12708,-26.453118 c -0.37451,0.154208 -0.74934,0.30855 -1.04719,0.694569 -0.29785,0.38602 -0.51815,1.002857 -0.25327,1.07997 0.26487,0.07711 1.01414,-0.385667 1.76348,-0.848497"
       id="path4669"
       inkscape:connector-curvature="0"
       inkscape:path-effect="#path-effect4671"
       inkscape:original-d="m 170.12708,-26.453118 c -0.37456,0.154075 -0.74939,0.308417 -1.12448,0.463021 -0.22041,0.617622 -0.44071,1.234459 -0.66146,1.852084 0.75031,-0.463524 1.49957,-0.926307 2.24896,-1.389063" />
    <path
       style="fill:#ffffff;stroke:#000000;stroke-width:0.26458332px;stroke-linecap:butt;stroke-linejoin:miter;stroke-opacity:1"
       d="m 166.02604,-21.889055 c 0.74992,-0.749918 1.49957,-1.49957 1.91834,-1.279285 0.41876,0.220285 0.50699,1.411333 0.5952,2.602202"
       id="path4673"
       inkscape:connector-curvature="0"
       inkscape:path-effect="#path-effect4675"
       inkscape:original-d="m 166.02604,-21.889055 c 0.74992,-0.749917 1.49957,-1.499571 2.24896,-2.248958 0.0884,1.189939 0.17665,2.380985 0.26458,3.571875" />
    <path
       style="fill:#ffffff;stroke:#000000;stroke-width:0.26458332px;stroke-linecap:butt;stroke-linejoin:miter;stroke-opacity:1"
       d="m 163.24791,-25.262493 c 0.90431,-0.242619 1.8083,-0.485153 1.98474,-0.253869 0.17645,0.231284 -0.37496,0.937082 -0.9264,1.642932"
       id="path4677"
       inkscape:connector-curvature="0"
       inkscape:path-effect="#path-effect4679"
       inkscape:original-d="m 163.24791,-25.262493 c 0.90426,-0.2428 1.80825,-0.485333 2.71198,-0.727604 -0.55076,0.705046 -1.10216,1.410846 -1.65364,2.116667" />
    <path
       style="fill:none;stroke:#000000;stroke-width:0.26458332px;stroke-linecap:butt;stroke-linejoin:miter;stroke-opacity:1"
       d="m 126.05207,-37.918529 c 1.43317,-0.528985 3.50574,0.04428 3.10906,0.85995 -0.39668,0.81567 -3.26325,1.874095 -4.29957,1.587273 -1.03632,-0.286823 -0.24266,-1.918238 1.19051,-2.447223 z"
       id="path4681"
       inkscape:connector-curvature="0"
       inkscape:path-effect="#path-effect4683"
       inkscape:original-d="m 125.4125,-39.020826 c 2.07283,0.573 4.1454,1.146263 6.21771,1.719792 -2.86581,1.057979 -5.73238,2.116402 -8.59896,3.175 0.7941,-1.632043 1.58776,-3.263458 2.38125,-4.894792 z" />
    <path
       style="opacity:1;fill:#ffffff;fill-opacity:1;fill-rule:evenodd;stroke:#ffffff;stroke-width:0;stroke-linecap:round;stroke-linejoin:round;stroke-miterlimit:4;stroke-dasharray:none;stroke-dashoffset:22.05000114;stroke-opacity:1;paint-order:stroke markers fill"
       d="m 471.44411,-463.94387 c -1.05655,-0.85554 -1.09448,-1.05208 -0.48641,-2.52008 0.96169,-2.32174 4.20366,-4.87602 7.05782,-5.56072 3.24119,-0.77755 7.13931,-0.22238 8.86578,1.26267 l 1.33858,1.1514 -0.99532,1.10199 c -1.40879,1.55978 -5.92607,3.72084 -9.77726,4.67744 -4.14377,1.02927 -4.60357,1.02064 -6.00319,-0.1127 z"
       id="path4685"
       inkscape:connector-curvature="0"
       transform="matrix(0.26458333,0,0,0.26458333,0,87)" />
    <path
       style="opacity:1;fill:#ff0000;fill-opacity:1;fill-rule:evenodd;stroke:#ffffff;stroke-width:0;stroke-linecap:round;stroke-linejoin:round;stroke-miterlimit:4;stroke-dasharray:none;stroke-dashoffset:22.05000114;stroke-opacity:1;paint-order:stroke markers fill"
       id="path4691"
       d="m 126.36848,-37.004883 c 0.009,-7.94e-4 0.0175,-7.94e-4 0.0262,-0.0024 0.0124,-0.0021 0.0243,-0.0059 0.0366,-0.0083 0.0608,-0.01209 0.11377,-0.01685 0.17593,-0.006 0.0551,0.02291 0.0553,0.05829 0.0836,0.09838 0.0123,0.01746 0.0206,0.02437 0.0358,0.03965 0.02,0.01421 0.0471,0.02027 0.064,0.03906 0.0208,0.02307 0.0293,0.05419 0.038,0.08297 0.0131,0.04213 0.0229,0.08482 0.0135,0.129108 -0.003,0.01326 -0.008,0.02577 -0.0125,0.03866 -0.0329,0.06204 -0.0908,0.103923 -0.14974,0.139411 -0.0413,0.01656 -0.0649,0.05701 -0.10358,0.07661 -0.0756,0.01635 -0.15292,0.02336 -0.22954,0.03372 -0.0453,0.0055 -0.0892,0.01688 -0.12974,0.03812 -0.008,0.0041 -0.0152,0.0091 -0.0227,0.01389 -0.006,0.0037 -0.01,0.01085 -0.0167,0.01146 -0.0289,0.0026 -0.0581,-0.0013 -0.0871,-0.0021 -0.0144,-0.01588 -0.0313,-0.02983 -0.0432,-0.04764 -0.0166,-0.02471 -0.0202,-0.08127 -0.025,-0.109728 -0.005,-0.03247 -0.0117,-0.0648 -0.0175,-0.09722 -0.008,-0.07065 -0.0134,-0.142142 0.005,-0.211817 0.0105,-0.03936 0.0236,-0.06208 0.0411,-0.09845 0.0262,-0.04218 0.0346,-0.06044 0.0703,-0.09731 0.0715,-0.07401 0.16236,-0.130715 0.2466,-0.188611 0.0727,-0.05068 0.14033,-0.113686 0.22215,-0.150318 0.0177,-0.0079 0.0827,-0.02805 0.10284,-0.03446 0.0404,-0.01019 0.0798,-0.02318 0.11773,-0.04047 0.009,-0.0041 0.017,-0.01119 0.0268,-0.01307 0.0258,-0.005 0.0522,-0.0084 0.0784,-0.0072 0.013,5.29e-4 0.0247,0.0081 0.0371,0.0122 0.0113,0.01116 0.0251,0.02024 0.034,0.03346 0.0296,0.0443 0.0184,0.100685 0.0196,0.15062 -0.002,0.08531 -0.0395,0.139851 -0.0889,0.205118 -0.0617,0.07156 -0.12904,0.13821 -0.2051,0.194609 -0.0496,0.03677 -0.0926,0.06195 -0.1448,0.09436 -0.0545,0.03437 -0.11014,0.06618 -0.16777,0.09481 -0.012,0.006 -0.023,0.01455 -0.0359,0.01773 -0.0244,0.0059 -0.0496,0.0093 -0.0746,0.0092 -0.0132,-4.5e-5 -0.0257,-0.0064 -0.0386,-0.0096 -0.0115,-0.01035 -0.0246,-0.01921 -0.0346,-0.03102 -0.0228,-0.02695 -0.031,-0.06539 -0.0165,-0.108164 0.005,-0.01506 0.0208,-0.02405 0.0313,-0.03607 0.044,-0.03655 0.0876,-0.07357 0.13322,-0.108006 0.0208,-0.01566 0.0428,-0.0296 0.063,-0.04598 0.0309,-0.02511 0.0751,-0.06938 0.10407,-0.09759 0.0542,-0.05879 0.11577,-0.159771 0.21415,-0.07332 0.0619,0.05442 0.009,0.104994 -0.0177,0.144301 -0.0986,0.0881 -0.21708,0.150431 -0.32747,0.223014 -0.008,0.0045 -0.0721,-0.115157 -0.0636,-0.119655 v 0 c 0.0141,7.94e-4 0.0283,0.0038 0.0424,0.0024 0.0794,-0.0084 0.15737,-0.05446 0.19802,-0.124044 0.007,-0.0118 0.009,-0.02569 0.0139,-0.03856 -0.002,-0.0031 -0.006,-0.01241 -0.004,-0.0093 0.007,0.01669 0.006,0.04164 0.0222,0.05 0.0261,0.01341 0.0587,0.01082 0.0877,0.0066 0.007,-0.0011 -0.005,-0.01511 -0.0114,-0.0176 -0.0282,-0.01072 -0.064,0.0093 -0.0872,0.01778 -0.0184,0.0123 -0.0379,0.02331 -0.0554,0.03693 -0.0621,0.04838 -0.11998,0.122087 -0.15175,0.194807 -0.004,0.0099 -0.006,0.02077 -0.009,0.03117 0.002,0.0028 0.005,0.0114 0.005,0.0082 10e-4,-0.01516 -0.002,-0.03036 -0.002,-0.04554 -3e-5,-5.3e-4 -2.4e-4,-0.0024 4e-5,-0.0019 0.002,0.005 0.0103,0.01146 0.006,0.01529 -0.004,0.0037 -0.005,-0.0095 -0.009,-0.01315 -0.007,-0.0065 -0.0152,-0.01119 -0.0229,-0.0168 -0.009,0.0011 -0.0457,0.0033 -0.044,0.01466 0.002,0.01167 0.0221,0.0088 0.0337,0.01093 0.0622,0.01117 0.12171,-0.0074 0.1793,-0.02931 0.0234,-0.01283 0.0481,-0.02355 0.0702,-0.03845 0.0945,-0.06365 0.15767,-0.158618 0.198,-0.263419 0.0223,-0.04933 0.009,-0.01746 0.0254,-0.06587 0.002,-0.0057 0.0106,-0.02871 0.0116,-0.03626 0.001,-0.0077 -0.002,-0.03387 -0.002,-0.04021 -1e-4,-0.02008 -8e-4,-0.03943 -0.005,-0.05923 -2.6e-4,-0.0019 0.0186,0.04192 0.0222,0.02997 0.0165,0.0016 0.0378,0.0051 0.0508,-0.0093 0.006,-0.0067 -0.0178,-0.0039 -0.0268,-0.0044 -0.0291,-0.0016 -0.0507,0.0019 -0.0796,0.0076 -0.016,0.0031 -0.0318,0.0072 -0.0477,0.01074 -0.11882,0.01458 -0.23043,0.0516 -0.33104,0.118181 -0.0561,0.04477 -0.11636,0.09357 -0.16371,0.147958 -0.0349,0.04007 -0.0602,0.08767 -0.0827,0.135329 -0.037,0.08798 -0.0582,0.145936 -0.0358,0.243295 0.011,0.04077 0.0227,0.07309 0.0485,0.106961 0.005,0.0065 0.01,0.0132 0.0161,0.01868 0.002,0.0021 0.0101,0.0056 0.008,0.0032 -0.007,-0.0092 -0.0164,-0.01638 -0.0246,-0.02458 -0.0223,0.0011 -0.045,-0.0011 -0.0668,0.0035 -0.006,0.0013 0.0109,0.0057 0.0168,0.0072 0.0555,0.01476 0.11486,0.0035 0.17044,-0.0031 0.0421,-0.01103 0.0847,-0.02013 0.12044,-0.04673 0.0466,-0.03475 -10e-4,-0.004 0.0319,-0.03188 0.006,-0.0047 0.0122,-0.0082 0.0183,-0.0123 0.004,-0.0011 0.007,-0.0021 0.0109,-0.0033 0.002,0.0013 0.003,0.0042 0.005,0.0042 0.0225,2.14e-4 0.0656,-0.02687 0.0851,-0.03755 0.0319,-0.02106 0.0658,-0.04058 0.0921,-0.06883 0.0128,-0.01511 -0.006,-0.05506 -0.0104,-0.07181 -0.01,-0.0293 -0.0259,-0.0471 -0.0511,-0.06857 -0.0166,-0.01564 -0.0334,-0.0311 -0.0498,-0.04693 -0.0131,-0.01259 -0.0249,-0.0266 -0.0389,-0.03814 -0.004,-0.0031 0.0176,0.02426 0.012,0.0085 -0.008,-0.02035 0.0208,0.05336 0.0204,-0.007 -6e-5,-0.0073 -0.0146,-0.0016 -0.0219,-0.0016 -0.0234,2.38e-4 -0.0395,0.0048 -0.0557,0.02238 -0.0111,0.0071 -0.11195,-0.149871 -0.10085,-0.157002 z"
       inkscape:connector-curvature="0" />
    <path
       style="opacity:1;fill:#ff0000;fill-opacity:1;fill-rule:evenodd;stroke:#ffffff;stroke-width:0;stroke-linecap:round;stroke-linejoin:round;stroke-miterlimit:4;stroke-dasharray:none;stroke-dashoffset:22.05000114;stroke-opacity:1;paint-order:stroke markers fill"
       id="path4693"
       d="m 126.57237,-36.558547 c -0.0849,0.04149 -0.16037,0.1011 -0.24771,0.13798 -0.0167,0.007 -0.0341,0.01204 -0.0512,0.01807 -0.0552,0.004 -0.0692,0.01122 -0.12559,-0.01556 -0.0665,-0.03163 -0.0995,-0.104961 -0.13781,-0.1621 -0.0174,-0.02596 -0.0364,-0.05082 -0.0546,-0.07623 -0.0793,-0.122121 -0.14928,-0.253566 -0.17459,-0.398669 -0.006,-0.03184 -0.01,-0.06426 -0.009,-0.09656 10e-4,-0.02967 0.0102,-0.0585 0.0153,-0.08774 0.014,-0.02545 0.0237,-0.05388 0.0421,-0.0764 0.0898,-0.110011 0.26038,-0.141023 0.39337,-0.14904 0.0388,-0.0024 0.0778,-2.64e-4 0.11675,-5.29e-4 0.12212,0.009 0.2536,0.02522 0.34464,0.116909 0.045,0.04527 0.0643,0.09132 0.0944,0.146836 0.0131,0.03163 0.0271,0.06293 0.0394,0.0949 0.0161,0.04193 0.0594,0.167341 0.0729,0.210074 0.0178,0.05639 0.042,0.139835 0.0532,0.198676 0.006,0.029 0.008,0.05849 0.012,0.08774 -0.002,0.06691 0.003,0.14619 -0.0557,0.193482 -0.0586,0.04686 -0.13987,0.03731 -0.20852,0.03492 -0.0868,-0.01643 -0.2014,-0.02024 -0.26673,-0.08938 -0.0113,-0.01196 -0.0188,-0.02707 -0.0281,-0.0406 -0.006,-0.0168 -0.0138,-0.03315 -0.0186,-0.0504 -0.0101,-0.03609 -0.0168,-0.09159 -0.022,-0.127709 -0.009,-0.06185 -0.0142,-0.08829 -0.0164,-0.151741 -7.9e-4,-0.02646 5.3e-4,-0.05295 5.3e-4,-0.07942 0.008,-0.07295 0.0232,-0.146783 0.0991,-0.179311 0.026,-0.01114 0.0551,-0.01347 0.0831,-0.0168 0.088,-0.01048 0.10637,-0.0024 0.19653,0.0087 0.091,0.01431 0.17415,0.05292 0.259,0.08621 0.0245,0.0096 0.0766,0.02056 0.0901,0.05174 0.007,0.01622 10e-4,0.03534 10e-4,0.05301 -0.0129,0.01265 -0.0233,0.02855 -0.0387,0.03796 -0.0226,0.01378 -0.0801,0.0208 -0.10418,0.02506 -0.0691,0.01225 -0.13807,0.02466 -0.2073,0.03613 -0.0303,0.0094 -0.0607,0.01884 -0.091,0.02832 -0.0807,0.02524 -0.12579,0.04077 -0.20829,0.06175 -0.0337,0.0086 -0.0679,0.01564 -0.10186,0.0232 -0.0283,0.0063 -0.0572,0.01011 -0.0849,0.01844 -0.0203,0.0061 -0.0391,0.01651 -0.0587,0.02474 -0.0144,0.0711 -0.11205,-0.007 -0.10008,-0.04099 0.012,-0.03408 0.07,-0.01767 0.10507,-0.02655 0.24447,-0.06193 -0.0366,0.01201 0.24497,-0.07309 0.0513,-0.0155 0.10345,-0.02835 0.15518,-0.04252 0.11655,-0.02506 0.17567,-0.04093 0.29168,-0.05435 0.0337,-0.0039 0.0678,-0.0045 0.10171,-0.0065 0.0166,-0.0011 0.11077,-0.02032 0.11471,0.0316 0.002,0.02787 -0.0256,0.04967 -0.0385,0.0745 -0.0274,0.01762 -0.0559,0.03361 -0.0821,0.0529 -0.0319,0.02341 -0.0608,0.05059 -0.0919,0.07502 -0.11625,0.09136 -0.23674,0.182306 -0.35936,0.264901 -0.038,0.02561 -0.0774,0.04914 -0.11613,0.0737 -0.12212,0.06913 -0.22762,0.107685 -0.36805,0.07894 -0.023,-0.0047 -0.046,-0.01029 -0.0676,-0.01947 -0.0186,-0.0079 -0.0345,-0.02088 -0.0518,-0.03129 -0.0113,-0.01418 -0.0252,-0.02658 -0.0339,-0.04251 -0.0461,-0.08479 -0.0103,-0.218644 0.008,-0.306231 0.007,-0.02927 0.0108,-0.05944 0.0207,-0.08782 0.041,-0.117054 0.11247,-0.194421 0.22796,-0.243646 0.11814,-0.05036 0.19051,-0.04762 0.31835,-0.06113 0.14926,-5.3e-4 0.30382,0.0069 0.44366,0.06563 0.0259,0.0109 0.0486,0.02841 0.0728,0.04284 0.0177,0.01056 0.0409,0.01535 0.0528,0.03216 0.0113,0.01598 0.007,0.03849 0.0108,0.05774 -0.0113,0.01791 -0.0202,0.03756 -0.0339,0.05377 -0.0133,0.01582 -0.0307,0.02762 -0.0462,0.04135 -0.048,0.04276 -0.0964,0.08591 -0.14927,0.122762 -0.0202,0.01408 -0.0414,0.02662 -0.0622,0.03994 -0.085,0.0502 -0.16659,0.111061 -0.26127,0.142568 -0.0562,0.01871 -0.0688,0.01508 -0.12831,0.01789 -0.0166,-0.0069 -0.0367,-0.0083 -0.0498,-0.02061 -0.0578,-0.05448 -0.0202,-0.137369 -0.009,-0.199776 0.006,-0.03262 0.008,-0.06578 0.013,-0.09855 0.006,-0.03747 0.0122,-0.07477 0.0183,-0.112149 0.0107,-0.0389 0.0182,-0.07885 0.0322,-0.116708 0.0381,-0.10337 0.0997,-0.204785 0.20723,-0.247595 0.0856,-0.03407 0.11945,-0.01834 0.20748,-0.0074 0.0316,0.01381 0.0654,0.02355 0.0949,0.04141 0.0798,0.04828 0.13577,0.123423 0.15805,0.213617 0.0166,0.06729 0.009,0.08159 0.001,0.147936 -0.008,0.02151 -0.0128,0.04425 -0.0235,0.0645 -0.0557,0.105889 -0.17007,0.145931 -0.27457,0.185224 -0.0485,0.01447 -0.15001,0.0746 -0.192,0.01876 -0.0254,-0.03386 -0.0142,-0.06555 -0.009,-0.101838 0.004,-0.01839 0.007,-0.03681 0.0113,-0.05516 0.005,-0.02458 0.0119,-0.04891 0.0166,-0.07363 0.0123,-0.06484 0.0163,-0.124063 0.0353,-0.187867 0.0272,-0.09137 0.0401,-0.101484 0.0885,-0.181944 0.0637,-0.08027 0.11112,-0.11549 0.20723,-0.147867 0.0427,-0.01437 0.081,-0.02508 0.12674,-0.01503 0.0168,0.0037 0.0307,0.01558 0.0461,0.02336 0.01,0.01286 0.0221,0.02418 0.0295,0.03857 0.0131,0.02556 0.0138,0.05306 0.0142,0.08072 1.2e-4,0.0079 -0.002,0.03966 2.6e-4,0.0504 5.3e-4,0.0027 0.003,0.0042 0.005,0.0063 0.003,-0.01053 0.016,-0.04811 -0.0127,-0.04637 -0.0373,0.0024 -0.0684,0.03089 -0.10453,0.04023 -0.006,0.0016 0.0102,-0.0096 0.0105,-0.01595 0.003,-0.0504 -0.018,-0.08815 -0.035,-0.134742 -0.0795,-0.104746 -0.16967,-0.204626 -0.27915,-0.279008 -0.0228,-0.01548 -0.0456,-0.03175 -0.0713,-0.04165 -0.0221,-0.0085 -0.0465,-0.0085 -0.0698,-0.01275 -0.0185,0.0027 -0.0377,0.0027 -0.0556,0.0082 -0.009,0.0027 -0.0153,0.01037 -0.0228,0.01574 -0.009,0.0067 -0.0194,0.01294 -0.0281,0.02061 -0.0398,0.03516 -0.0685,0.08106 -0.0982,0.124364 -0.0651,0.101958 -0.12666,0.211934 -0.14571,0.333137 -0.003,0.01844 -0.003,0.03717 -0.005,0.05576 0.003,0.03474 -5.3e-4,0.04595 0.0168,0.07435 -0.002,0.02048 0.0179,0.0095 0.0242,0.01709 0.008,0.0095 0.0117,0.03299 0.0141,0.04361 0.005,0.04733 -0.0195,0.08279 -0.0442,0.120187 -0.0202,0.03054 -0.0156,0.02358 -0.031,0.05412 -0.007,-0.01577 -0.0108,0.03327 -0.002,0.02971 0.006,-0.0021 0.0146,-0.01061 0.0103,-0.01487 -0.0251,-0.02503 -0.0573,-0.04165 -0.0867,-0.06141 -0.004,-0.0028 0.006,0.01024 0.0106,0.01029 0.0171,9.3e-5 0.0336,-0.0066 0.0505,-0.0099 0.063,-0.02236 0.0856,-0.02915 0.15015,-0.05798 0.0305,-0.01363 0.0594,-0.0307 0.0903,-0.04331 0.0334,-0.01363 0.0678,-0.02466 0.10233,-0.03525 0.0867,-0.02666 0.10371,-0.02783 0.18872,-0.04443 0.0533,-0.01373 0.13949,-0.04648 0.15808,0.03617 0.009,0.03993 -0.0208,0.0857 -0.0341,0.119303 -0.007,0.01773 -0.0125,0.03604 -0.0188,0.05406 -0.008,0.03449 -0.0143,0.05167 -0.0153,0.08593 -2.6e-4,0.0086 0.002,0.01722 0.002,0.02582 5.3e-4,0.0072 0.007,0.01807 0.001,0.0218 -0.0847,0.05068 -0.0731,0.04603 -0.11967,0.0065 -0.0522,-0.05582 -0.1165,-0.09601 -0.18997,-0.117676 -0.0365,-0.01074 -0.0712,-0.01405 -0.10844,-0.01892 -0.013,-0.0045 -0.0289,-0.0041 -0.0389,-0.01341 -0.0123,-0.01148 -0.0225,-0.02789 -0.0236,-0.0447 -0.005,-0.07602 0.11921,-0.137515 0.17181,-0.169937 0.0611,-0.03753 0.11928,-0.07967 0.17911,-0.119155 0.041,-0.02705 0.084,-0.05113 0.12578,-0.07687 0.006,-0.0024 0.0409,0.07716 0.0353,0.07966 v 0 c -0.0122,-0.0021 -0.0243,-0.0057 -0.0367,-0.006 -0.0413,-7.94e-4 -0.0686,0.0079 -0.10725,0.02376 -0.0663,0.02717 -0.12402,0.0684 -0.17778,0.115298 -0.0368,0.04195 -0.0466,0.04784 -0.0717,0.09463 -0.005,0.0092 -0.007,0.01969 -0.0115,0.02918 -8e-4,0.0016 -0.002,0.0032 -0.004,0.004 -0.003,0.0013 -0.01,-0.0011 -0.01,0.0024 -5.2e-4,0.0079 0.005,0.015 0.008,0.02249 0.0108,0.0093 0.0207,0.01982 0.0325,0.02776 0.0825,0.05552 0.18722,0.0653 0.28338,0.07575 0.005,-0.0028 0.0207,-0.01072 0.0154,-0.0082 -0.023,0.01087 -0.0473,0.0195 -0.0686,0.03342 -0.004,0.0024 0.009,0.0046 0.0133,0.0028 0.0264,-0.01183 0.0566,-0.06721 0.0688,-0.08968 0.006,-0.0172 0.014,-0.03381 0.0179,-0.05159 0.0117,-0.0536 0.002,-0.03709 0.003,-0.0782 5.3e-4,-0.01648 0.0126,-0.03657 -0.0106,-0.0496 -0.0201,-0.0113 -0.0452,-0.0093 -0.0678,-0.01397 -0.0988,0.01923 -0.19681,0.04121 -0.29048,0.07935 -0.0308,0.01257 -0.0619,0.02551 -0.0901,0.04317 -0.0549,0.03433 -0.0685,0.05836 -0.10638,0.105486 -0.002,0.0034 -0.0467,0.07805 -0.056,0.07648 -0.0871,-0.01474 -0.1222,-0.03367 -0.0937,-0.08736 0.001,-0.0019 0.031,-0.03665 0.0319,-0.03772 0.0234,-0.03073 0.0455,-0.06581 0.0464,-0.10581 -0.004,-0.0164 -0.0113,-0.03176 -0.0122,-0.04912 -0.002,-0.04155 0.0183,-0.07994 0.0288,-0.118914 0.0541,-0.131194 0.11942,-0.257866 0.166,-0.392216 0.0186,-0.05086 0.0419,-0.121684 0.082,-0.160787 0.0523,-0.05097 0.10486,-0.04402 0.16651,-0.01757 0.0247,0.01384 0.11071,0.06148 0.12997,0.07458 0.10967,0.07461 0.20004,0.174692 0.27965,0.279702 0.0209,0.02061 0.0415,0.04152 0.0627,0.06185 0.0168,0.01614 0.0357,0.03023 0.0512,0.04756 0.0139,0.01548 0.0476,0.03259 0.0369,0.05042 -0.0214,0.03553 -0.0655,0.05694 -0.10628,0.06477 -0.0288,0.0055 -0.031,-0.05889 -0.0324,-0.07131 0.0122,-0.03899 0.0389,-0.07322 0.0224,-0.1158 -0.0115,-0.01521 -0.0274,-0.04054 -0.0468,-0.04703 -0.0777,-0.02604 -0.15393,0.01175 -0.21156,0.0625 -0.0237,0.02088 -0.0424,0.04675 -0.0637,0.07013 -0.0172,0.02859 -0.037,0.05576 -0.0517,0.08577 -0.0414,0.08506 -0.0686,0.187222 -0.0581,0.282498 0.002,0.01368 0.0279,0.104145 0.0338,0.124849 0.004,0.0097 0.008,0.01939 0.0115,0.02909 2.5e-4,5.29e-4 0.001,0.0013 7.9e-4,0.0019 -0.002,0.004 -0.0179,0.01365 -0.005,0.02101 0.0278,0.01648 0.0727,0.0093 0.10091,0.008 0.0208,-0.0056 0.0423,-0.0093 0.0625,-0.01678 0.0733,-0.02705 0.15704,-0.08501 0.20093,-0.150746 0.0121,-0.01812 0.0199,-0.03881 0.0298,-0.05822 0.0155,-0.05867 0.0282,-0.081 0.0158,-0.143886 -0.0174,-0.08854 -0.0809,-0.166057 -0.15684,-0.211981 -0.0293,-0.01773 -0.0628,-0.02738 -0.0943,-0.04107 -0.0867,-0.01109 -0.11979,-0.02661 -0.20442,0.0068 -0.10705,0.04229 -0.16835,0.143222 -0.20627,0.245988 -0.0139,0.03777 -0.0214,0.07762 -0.0321,0.116438 -0.0114,0.06963 -0.0272,0.139197 -0.0227,0.210497 0.002,0.02474 0.009,0.04891 0.0153,0.07276 0.003,0.01011 0.0211,0.05636 0.0312,0.07033 0.006,0.0085 0.0142,0.01535 0.0214,0.02302 0.0113,0.0055 0.0214,0.01445 0.0338,0.01651 0.0853,0.01431 0.19462,-0.04234 0.26261,-0.08869 0.021,-0.01429 0.0399,-0.03128 0.0599,-0.04692 0.0859,-0.07366 0.1751,-0.149143 0.23265,-0.248135 0.005,-0.0096 0.0144,-0.01802 0.0152,-0.02885 0.005,-0.06549 -0.0203,-0.07256 -0.0815,-0.0982 -0.13908,-0.0583 -0.29274,-0.06573 -0.44117,-0.06542 -0.12743,0.01336 -0.1996,0.01061 -0.3174,0.06058 -0.11243,0.0477 -0.18866,0.126235 -0.22693,0.241871 -0.009,0.02825 -0.0114,0.0584 -0.0171,0.08761 0.002,0.02609 0.004,0.05222 0.007,0.07822 0.006,0.05457 0.01,0.06667 0.0193,0.117991 0.005,0.02967 0.008,0.05246 0.0174,0.08097 0.004,0.01299 0.0103,0.02535 0.0154,0.03803 0.0268,0.03863 0.0332,0.05875 0.0826,0.07785 0.024,0.0093 0.0501,0.01273 0.0758,0.01381 0.10453,0.0044 0.19894,-0.0391 0.28775,-0.08892 0.0387,-0.02453 0.0781,-0.04803 0.11604,-0.07361 0.0681,-0.04587 0.18077,-0.129644 0.24616,-0.178758 0.0138,-0.0104 0.18516,-0.138949 0.20475,-0.160819 0.0175,-0.01953 0.0249,-0.04616 0.0373,-0.06924 0.003,-0.0082 0.005,-0.01664 0.008,-0.02466 0.004,-0.01045 0.0199,-0.02101 0.0141,-0.03066 -0.0294,-0.04915 -0.11795,-0.02713 -0.15172,-0.02323 -0.1158,0.01336 -0.17509,0.02926 -0.29141,0.05423 -0.067,0.01834 -0.22246,0.05783 -0.28983,0.08751 -0.0317,0.01394 -0.0639,0.02973 -0.089,0.05351 -0.008,0.0079 0.007,0.0361 -0.004,0.03448 -0.0303,-0.0043 -0.0538,-0.0295 -0.0794,-0.04634 -0.0137,-0.009 0.029,0.01516 0.0435,0.02276 0.0232,2.64e-4 0.0466,0.0036 0.0697,0.0011 0.0288,-0.0032 0.0566,-0.01214 0.0849,-0.01844 0.13544,-0.03017 0.26938,-0.06699 0.39916,-0.116528 0.0232,-0.01087 0.0463,-0.02212 0.0697,-0.03265 0.0282,-0.01273 0.0821,-0.0344 0.11097,-0.04897 0.0135,-0.0069 0.0263,-0.01508 0.0395,-0.02262 0.007,-0.0057 0.0142,-0.01252 0.0224,-0.01712 0.002,-0.0011 0.004,5.29e-4 0.006,7.94e-4 0.005,0.0026 0.011,0.01114 0.0157,0.0076 0.0234,-0.01767 -0.005,-0.06239 -0.0134,-0.07131 -0.0555,-0.05733 -0.17708,-0.07785 -0.24945,-0.09712 -0.0681,-0.0085 -0.12432,-0.02222 -0.19262,-0.0064 -0.0574,0.01328 -0.13247,0.06603 -0.15898,0.119885 -0.0109,0.02212 -0.0137,0.04739 -0.0205,0.07108 1.1e-4,0.02622 -0.002,0.05258 2.7e-4,0.07865 0.003,0.02595 0.01,0.05131 0.016,0.07663 0.0195,0.07826 0.0514,0.151196 0.0969,0.217879 0.0116,0.01519 0.0321,0.04353 0.0463,0.05668 0.0534,0.04932 0.12354,0.07235 0.19414,0.08231 0.0191,7.94e-4 0.0383,0.0039 0.0573,0.0024 0.0776,-0.0065 0.16088,-0.04826 0.18652,-0.127466 0.008,-0.02424 0.006,-0.05055 0.01,-0.07582 -0.004,-0.02916 -0.007,-0.05858 -0.012,-0.08749 -0.0112,-0.05878 -0.0354,-0.142126 -0.0532,-0.198453 -0.0135,-0.04274 -0.0567,-0.16796 -0.0729,-0.209907 -0.0123,-0.03188 -0.0262,-0.0631 -0.0393,-0.09465 -0.034,-0.06287 -0.0449,-0.09438 -0.095,-0.144838 -0.0908,-0.09137 -0.21788,-0.108821 -0.34047,-0.117195 -0.0388,1.32e-4 -0.0777,-0.0019 -0.11648,2.65e-4 -0.13206,0.0079 -0.30214,0.0384 -0.39164,0.147431 -0.0183,0.02225 -0.0279,0.05039 -0.0418,0.07559 -0.005,0.02902 -0.0142,0.05762 -0.0153,0.08707 -0.001,0.03216 0.003,0.06446 0.009,0.09617 0.0252,0.144788 0.0952,0.275931 0.17424,0.39778 0.0182,0.02535 0.0338,0.0527 0.0545,0.07606 0.0439,0.04964 0.10265,0.08757 0.16226,0.115149 0.009,0.0043 0.0184,0.0097 0.0285,0.01156 0.0151,0.0028 0.0306,0.0016 0.0459,0.0024 0.0166,-0.0021 0.0336,-0.0024 0.0498,-0.0062 0.069,-0.01683 0.13319,-0.06278 0.16227,-0.129048 0.004,-0.0095 0.005,-0.02014 0.007,-0.03022 0.004,-0.0074 0.10826,0.05235 0.10404,0.05971 z"
       inkscape:connector-curvature="0" />
  </g>
</svg>
